<?xml version="1.0" encoding="UTF-8" standalone="no"?>
<svg width="512" height="512" viewBox="0 0 512 512" fill="none" xmlns="http://www.w3.org/2000/svg">
  <!-- Chef hat -->
  <path d="M256 80C176.5 80 112 144.5 112 224C112 280 144 328 192 352V432H320V352C368 328 400 280 400 224C400 144.5 335.5 80 256 80Z" fill="white"/>
  
  <!-- Hat details -->
  <path d="M256 96C185.3 96 128 153.3 128 224C128 275.2 157.3 319.2 200 341.3V416H312V341.3C354.7 319.2 384 275.2 384 224C384 153.3 326.7 96 256 96ZM296 400H216V349.3C228.7 353.1 242.1 355.2 256 355.2C269.9 355.2 283.3 353.1 296 349.3V400Z" fill="#FFA07A"/>
  
  <!-- Chat bubble -->
  <path d="M368 144C368 188.2 332.2 224 288 224H224C179.8 224 144 188.2 144 144C144 99.8 179.8 64 224 64H288C332.2 64 368 99.8 368 144Z" fill="#FF6B6B"/>
  
  <!-- Steam swirls -->
  <path d="M208 128C208 141.3 197.3 152 184 152C170.7 152 160 141.3 160 128C160 114.7 170.7 104 184 104C197.3 104 208 114.7 208 128Z" fill="white"/>
  <path d="M272 112C272 125.3 261.3 136 248 136C234.7 136 224 125.3 224 112C224 98.7 234.7 88 248 88C261.3 88 272 98.7 272 112Z" fill="white"/>
  <path d="M336 128C336 141.3 325.3 152 312 152C298.7 152 288 141.3 288 128C288 114.7 298.7 104 312 104C325.3 104 336 114.7 336 128Z" fill="white"/>
</svg>
